<svg id="Layer_1" data-name="Layer 1" xmlns="http://www.w3.org/2000/svg" xmlns:xlink="http://www.w3.org/1999/xlink" viewBox="0 0 1369.41 170.37"><defs><style>.cls-1,.cls-3,.cls-4,.cls-5,.cls-6,.cls-7,.cls-8{fill:none;}.cls-2{clip-path:url(#clip-path);}.cls-3{stroke:#ebad00;}.cls-3,.cls-4,.cls-5,.cls-6,.cls-7,.cls-8{stroke-miterlimit:5.47;stroke-width:4.39px;}.cls-4{stroke:#277bb4;}.cls-5{stroke:#fff;}.cls-6{stroke:#dadadb;}.cls-7{stroke:#e9e9e9;}.cls-8{stroke:#b90064;}</style><clipPath id="clip-path"><polygon class="cls-1" points="1369.41 170.37 0 170.37 0 0 1369.41 116.42 1369.41 170.37"/></clipPath></defs><title>Artboard 1</title><g id="Layer_2" data-name="Layer 2"><g id="footer"><g class="cls-2"><path class="cls-3" d="M1273,132.67c-28,15.54-49.26,40.5-76.3,57.69-28.21,17.92,43.24,13,12.2,4-21.77-6.3-78.9-41.15-101.12-45.63-37.8-7.62-113.92,32.44-150.28,45.3-43.12,15.25-119.51-81.15-164.48-71.3-21.38,4.69-44.16,6-65.54.66-20.7-5.19-40.41-15.09-62-16.12-34.22-1.64-59.75,19.39-89.12,32.66-30.55,13.8-61,24.14-95.06,22-28.56-1.76-56.35-8.14-85.27-6.72-32.74,1.6-64.2,12.36-93.62,26.36-28.64,13.63-54.44,32.81-86.26,38.21-42.78,7.26-87.19-12.69-129.11-19-26.67-4-52.6-2.12-79.11,2.3-58.43,9.75-121,34.55-163.74,76.77"/><path class="cls-3" d="M1905.15-38c-65.41-31.85-140.72-33.74-210.24-15.3-79.43,21.07-145.25,77.36-230.09,80.94-33.11,1.4-56.38,108.89-86.34,96.5-26.54-11-63.1-8.88-89.64,1.1a117.38,117.38,0,0,0-15.87,7.41"/><path class="cls-4" d="M1589.77,5.56c-21.09,8.21-42.27,16.08-64.09,22.08-38.07,10.47-74.16,157.16-113.44,161-61.12,6-122.36-19.28-183-29-60.17-9.61-110.64-68.42-152.52-37.22-94.32,70.21-181.46-8.26-262.12,14-47.63,13.13-97.9,15-173.34-12.65,0,0-86.17-29.5-156.84,28.41-16.13,13.21-37.49,21.9-56.88,28.63-46.58,16.15-95.14,17.55-143.73,11.68-43.34-5.22-85.52-16.22-129.52-15.74-38.87.42-75.54,11.4-110.49,28C30,211.44,16.91,219.6,3.11,226.31-79.94,266.7-195.53,237-195.53,237"/><path class="cls-5" d="M916.26,142.55c-4.14-.89-8.28-1.78-12.39-2.64"/><path class="cls-5" d="M999.82,151.94a180.93,180.93,0,0,1-27-.07"/><path class="cls-6" d="M602.18,116.85a187.78,187.78,0,0,0-35.48.81"/><path class="cls-5" d="M447.89,158.55c-7.57-.93-15.14-1.84-22.75-2.49"/><path class="cls-7" d="M481.24,162c-7.12-.45-14.23-1.17-21.29-2"/><path class="cls-5" d="M675.41,108.38a85.94,85.94,0,0,0-10-1.09,79.23,79.23,0,0,0-16.85,1"/><path class="cls-5" d="M1280.12,129a152.66,152.66,0,0,0-25.5,15.66"/><path class="cls-8" d="M-231.37,245.65s140.08,51.28,241.49,2.88C258,130.22,200.7,290.74,350,172.23c34.1-27.08,75-33.34,117.14-27.77,45.94,6.07,92.74,23.69,139.31,12.66,20.61-4.88,39.36-15.18,57.61-25.65,18-10.33,39-18.19,59.12-23a168.35,168.35,0,0,1,55.87-4c33.1,3.29,65.05,22.26,95,35.35C925,162,982,163.59,1036.33,155.82c50.75-7.27,100.86-36,152.54-32.33,79.65,5.62,144.18,75,223.36,73.27,27.16-.58-60.21,11.86-36.38,0,36.16-18,21.55-65.1,60-77.77,32.35-10.65,60.08-126.44,93.6-125.11,57.3,2.26,112.08,18.64,166.87-7.43,29.1-13.85,56.65-33.65,89.59-36.68,21.76-2,43.61,1.62,64.73,6.65,43.4,10.34,87.74,14.9,131.44,3.52"/><path class="cls-5" d="M1286.72,155.93q6,2.94,12,5.92"/><path class="cls-5" d="M1203.62,125.26c5.65.94,11.22,2.19,16.75,3.65"/><path class="cls-5" d="M1074.34,147.19c9.48-2.74,19-5.76,28.46-8.71"/><path class="cls-5" d="M933,156.59q10.86,1.69,21.84,2.52"/><path class="cls-7" d="M462.56,143.9c14.08,1.64,28.11,4.37,42.05,7.14"/><path class="cls-5" d="M350,172.23a143,143,0,0,1,24.39-15.74"/><path class="cls-7" d="M736.78,105.73a169.15,169.15,0,0,1,21.07-2"/><path class="cls-5" d="M1160.37,132.83c-14.65-7.43-28.58-14.26-41.81-17.45"/><path class="cls-5" d="M1229.25,159.71c-14.4-2.3-28.24-7.41-41.53-13.43"/><path class="cls-5" d="M806.92,122.7a36,36,0,0,0-13.95.06l-.54.12"/></g></g></g></svg>